<!DOCTYPE svg PUBLIC "-//W3C//DTD SVG 20010904//EN" "http://www.w3.org/TR/2001/REC-SVG-20010904/DTD/svg10.dtd">
<svg version="1.0" xmlns="http://www.w3.org/2000/svg" width="1200px" height="565px" viewBox="0 0 12000 5650" preserveAspectRatio="xMidYMid meet">
<g id="layer101" fill="#050505" stroke="none">
<path d="M0 2825 l0 -2825 6000 0 6000 0 0 2825 0 2825 -6000 0 -6000 0 0 -2825z"/>
</g>
<g id="layer102" fill="#465975" stroke="none">
<path d="M0 2825 l0 -2825 6000 0 6000 0 0 2825 0 2825 -6000 0 -6000 0 0 -2825z m5450 2409 c6 -14 10 -73 10 -131 0 -90 -2 -104 -15 -99 -8 3 -27 1 -42 -5 -33 -12 -87 -4 -108 17 -21 22 -20 121 2 146 18 20 107 26 118 8 14 -23 26 -7 23 33 l-3 42 -64 3 c-51 2 -66 0 -77 -15 -14 -19 -18 -15 -8 11 5 13 22 16 80 16 71 0 75 -1 84 -26z m1260 -14 l0 -40 64 0 c77 0 96 -18 96 -90 0 -80 -45 -112 -122 -85 -21 7 -38 9 -38 4 0 -5 -4 -9 -9 -9 -6 0 -9 57 -9 130 0 72 4 130 9 130 5 0 9 -18 9 -40z m-1795 -49 l-70 -6 -5 -120 -6 -120 -2 128 -2 127 78 -2 77 -2 -70 -5z m271 -5 c15 -12 19 -27 19 -75 0 -78 -15 -95 -86 -95 -66 0 -89 24 -89 93 0 70 19 91 84 91 29 0 61 -6 72 -14z m364 -76 c0 -53 -4 -90 -10 -90 -6 0 -10 37 -10 90 0 53 4 90 10 90 6 0 10 -37 10 -90z m228 78 c16 -16 15 -63 -1 -76 -7 -6 -40 -12 -72 -14 -59 -3 -60 -3 -60 -33 0 -29 1 -30 55 -33 43 -3 57 1 67 14 12 17 13 17 13 1 0 -37 -102 -50 -141 -18 -20 16 -22 23 -14 47 9 25 16 29 55 32 83 5 92 9 88 45 -3 31 -4 32 -57 35 -39 2 -58 -1 -72 -14 -10 -9 -19 -13 -19 -8 0 23 28 34 85 34 34 0 66 -5 73 -12z m144 2 c-29 -12 -44 -52 -40 -109 3 -42 6 -46 31 -49 37 -4 35 -22 -3 -22 -26 0 -30 -4 -31 -27 l-2 -28 -4 28 c-2 15 -11 27 -19 27 -8 0 -14 5 -14 10 0 6 7 10 15 10 12 0 15 14 15 69 0 76 14 102 53 100 l22 0 -23 -9z m107 -80 c1 -59 -1 -90 -8 -90 -7 0 -11 33 -11 90 0 50 4 90 8 90 5 0 9 -40 11 -90z m231 75 c18 -22 5 -31 -15 -11 -18 18 -76 21 -106 6 -15 -9 -19 -22 -19 -68 0 -32 5 -63 12 -70 19 -19 98 -15 121 6 16 13 19 14 15 2 -14 -44 -123 -49 -153 -7 -20 28 -19 107 1 135 13 18 25 22 73 22 40 0 63 -5 71 -15z m212 4 c16 -9 23 -8 29 2 5 9 9 -14 9 -57 0 -97 -17 -118 -90 -117 -51 1 -93 23 -76 40 4 4 12 0 17 -10 7 -12 23 -17 59 -17 39 0 52 4 65 23 l16 22 -64 5 c-35 3 -71 11 -80 19 -20 16 -22 72 -5 89 15 15 92 16 120 1z m606 -1 c10 -10 15 -10 22 2 7 10 10 -9 10 -61 0 -97 -11 -113 -78 -113 -48 0 -82 15 -82 37 0 5 8 3 18 -6 27 -25 108 -23 122 2 15 30 14 31 -39 31 -27 0 -61 4 -74 9 -32 12 -43 55 -22 87 13 20 24 24 63 24 27 0 54 -6 60 -12z m145 -135 c4 -7 22 -17 40 -22 21 -6 25 -10 12 -10 -11 -1 -31 6 -43 15 -20 14 -22 14 -24 -3 -1 -10 -4 18 -7 62 -3 44 -4 87 -1 95 3 8 7 -16 10 -55 3 -38 9 -76 13 -82z m255 135 c10 -10 15 -10 22 2 7 10 10 -11 10 -66 0 -96 -8 -108 -80 -108 -47 0 -80 15 -80 37 0 5 8 3 18 -6 22 -20 102 -23 120 -5 25 25 13 38 -37 38 -27 0 -61 4 -74 9 -32 12 -43 55 -22 87 13 20 24 24 63 24 27 0 54 -6 60 -12z m373 -5 c8 -9 14 -40 14 -74 0 -76 -17 -94 -87 -93 -65 1 -88 25 -88 93 0 72 19 91 89 91 42 0 62 -5 72 -17z m351 -8 c8 -18 8 -31 0 -50 -10 -21 -18 -24 -74 -27 -63 -3 -63 -3 -63 -33 0 -29 1 -30 55 -33 43 -3 57 1 67 14 12 17 13 17 13 1 0 -35 -97 -50 -138 -21 -22 15 -27 38 -16 68 5 12 20 16 63 16 69 0 84 9 79 46 -3 28 -6 29 -57 32 -39 2 -58 -1 -72 -14 -10 -9 -19 -13 -19 -8 0 23 28 34 87 34 58 0 64 -2 75 -25z m230 8 c10 -9 18 -21 18 -26 0 -6 -9 -1 -20 11 -15 16 -32 22 -63 22 -54 0 -80 -18 -75 -51 3 -23 7 -24 81 -27 73 -3 77 -4 77 -26 0 -13 -9 -34 -19 -47 -16 -20 -28 -24 -71 -23 -69 1 -85 18 -85 93 0 34 6 65 14 74 19 23 117 23 143 0z m226 5 c10 -10 15 -10 22 2 6 10 9 -17 8 -80 l-2 -95 -5 75 c-5 67 -9 76 -31 87 -31 15 -65 16 -91 3 -16 -9 -19 -22 -19 -85 0 -48 -4 -75 -11 -75 -8 0 -10 25 -7 76 3 60 7 79 23 90 23 17 97 18 113 2z m380 0 c7 -7 12 -19 12 -27 0 -11 -5 -9 -20 7 -15 16 -32 22 -65 22 -49 0 -78 -21 -73 -54 3 -19 10 -21 81 -24 l77 -3 0 -33 c0 -45 -22 -60 -87 -60 -69 0 -83 16 -83 93 0 74 16 91 90 91 31 0 61 -5 68 -12z m442 -8 c13 -24 5 -26 -16 -5 -19 19 -84 19 -110 1 -15 -11 -19 -26 -19 -71 1 -66 10 -75 77 -75 34 0 50 5 57 17 5 10 13 14 17 10 18 -17 -26 -41 -77 -41 -66 0 -89 24 -89 93 0 72 19 91 90 91 49 0 61 -3 70 -20z m232 3 c13 -12 18 -30 18 -72 0 -31 -4 -61 -8 -68 -20 -32 -115 -39 -149 -11 -19 16 -17 133 3 152 21 22 111 21 136 -1z m129 -144 c7 -5 28 -9 46 -9 42 0 53 21 55 107 l1 68 6 -75 c4 -41 10 -81 14 -87 5 -7 26 -13 47 -13 21 0 42 6 47 13 4 6 11 46 14 87 l6 75 1 -81 c1 -55 -2 -85 -10 -92 -26 -20 -58 -23 -88 -8 -27 13 -33 13 -60 -1 -24 -11 -37 -12 -61 -4 -17 6 -35 8 -40 5 -5 -3 -8 36 -7 88 l1 93 7 -78 c4 -52 11 -82 21 -88z m339 88 c0 -82 9 -97 55 -97 46 0 55 15 55 97 0 42 4 73 10 73 6 0 10 -31 10 -73 0 -82 9 -97 55 -97 46 0 55 15 55 97 0 42 4 73 10 73 13 0 13 -120 1 -153 -13 -33 -60 -44 -101 -24 -16 9 -32 12 -35 7 -10 -17 -57 -20 -86 -6 -16 8 -29 10 -29 5 0 -5 -4 -9 -10 -9 -6 0 -10 37 -10 90 0 53 4 90 10 90 6 0 10 -31 10 -73z m488 61 c7 -7 12 -18 12 -25 0 -8 -8 -5 -21 8 -16 16 -30 19 -67 17 -40 -3 -49 -7 -60 -31 -7 -15 -10 -32 -7 -37 3 -6 40 -10 81 -10 l74 0 0 -34 c0 -45 -21 -60 -87 -60 -69 0 -83 16 -83 95 0 75 14 89 89 89 31 0 62 -5 69 -12z m112 -51 c0 -74 12 -96 60 -107 29 -7 31 -8 10 -9 -14 -1 -36 6 -48 15 -20 14 -22 14 -22 0 0 -9 -4 -16 -10 -16 -6 0 -10 37 -10 90 0 53 4 90 10 90 6 0 10 -28 10 -63z m290 48 c7 -9 10 -19 6 -23 -4 -4 -12 1 -17 11 -7 12 -22 17 -50 17 -67 0 -79 -12 -79 -78 0 -32 5 -63 12 -70 18 -18 98 -15 120 5 10 9 18 11 18 6 0 -37 -115 -52 -148 -20 -21 22 -23 126 -3 151 18 22 123 22 141 1z m231 5 c10 -6 19 -18 19 -27 0 -14 -4 -13 -20 5 -15 16 -32 22 -65 22 -49 0 -78 -21 -73 -54 3 -19 10 -21 81 -24 l77 -3 0 -33 c0 -45 -22 -60 -87 -60 -69 0 -83 16 -83 93 0 72 17 91 82 91 27 0 58 -5 69 -10z m119 0 c0 -5 -7 -10 -15 -10 -8 0 -15 5 -15 10 0 6 7 10 15 10 8 0 15 -4 15 -10z m-2197 -97 c-18 -2 -48 -2 -65 0 -18 2 -4 4 32 4 36 0 50 -2 33 -4z m-3659 -138 c9 -14 13 -25 9 -25 -12 1 -46 50 -35 50 6 0 17 -11 26 -25z m466 0 c0 -8 -7 -15 -15 -15 -8 0 -15 7 -15 15 0 8 7 15 15 15 8 0 15 -7 15 -15z m-1955 -28 c51 -23 81 -52 108 -102 22 -40 22 -47 25 -661 3 -684 5 -654 -57 -654 -37 0 -51 17 -51 62 l0 39 -37 -30 c-73 -58 -102 -65 -296 -69 -314 -7 -418 38 -479 206 -18 48 -22 87 -26 247 -8 350 34 463 195 526 48 18 83 23 201 27 212 6 309 -18 398 -100 l46 -42 -4 184 c-6 280 3 271 -308 278 -328 7 -385 -8 -409 -104 -14 -53 -46 -74 -86 -56 -20 9 -25 19 -25 50 0 76 44 158 100 187 57 29 108 34 385 32 245 -2 285 -4 320 -20z m-2328 -433 c15 -24 15 -29 2 -53 l-15 -26 -339 -5 -340 -5 -5 -623 c-4 -539 -7 -624 -20 -632 -20 -13 -47 -12 -71 0 -18 10 -19 29 -19 678 0 506 3 671 12 680 9 9 110 12 395 12 l383 0 17 -26z m985 -2 c72 -29 131 -87 160 -160 22 -54 23 -69 23 -312 0 -288 -6 -323 -71 -399 -79 -91 -173 -115 -436 -109 -156 4 -191 8 -236 26 -81 31 -117 65 -154 139 l-33 67 -3 248 c-3 200 0 259 12 301 22 75 67 141 118 171 82 48 134 56 358 53 185 -3 211 -5 262 -25z m1957 15 c7 -9 12 -114 13 -318 l3 -304 448 -3 447 -2 0 308 c0 226 3 311 12 320 15 15 53 16 79 2 18 -10 19 -28 19 -672 0 -601 -2 -663 -17 -680 -21 -23 -55 -23 -76 0 -15 16 -17 56 -19 313 l-3 294 -445 0 -445 0 -3 -294 c-2 -257 -4 -297 -19 -313 -20 -22 -42 -23 -71 -2 l-22 15 0 659 c0 585 2 660 16 674 19 19 68 21 83 3z m2092 0 c116 -28 191 -94 225 -200 25 -76 32 -433 10 -536 -26 -126 -78 -190 -188 -233 -45 -18 -80 -22 -236 -26 -301 -7 -401 28 -471 167 -32 63 -41 137 -41 339 0 216 10 281 53 355 68 116 151 145 417 146 112 0 195 -4 231 -12z m1246 -17 c40 -14 81 -38 113 -67 l50 -45 0 55 c0 37 5 61 16 71 18 19 65 21 82 4 17 -17 17 -969 0 -986 -17 -17 -64 -15 -82 4 -14 13 -16 59 -16 348 0 222 -4 344 -11 367 -7 19 -26 49 -43 67 -65 70 -156 96 -336 96 -188 1 -248 -26 -287 -124 -14 -39 -17 -93 -21 -395 -2 -222 -7 -354 -14 -362 -14 -18 -73 -16 -87 1 -9 11 -11 109 -9 383 3 355 4 370 26 424 15 38 39 72 71 102 46 43 70 54 176 81 11 3 85 3 165 2 118 -3 157 -8 207 -26z m1367 13 c122 -34 172 -125 164 -297 -5 -104 -25 -154 -82 -204 -56 -49 -89 -54 -371 -61 -284 -7 -304 -11 -325 -67 -13 -34 -13 -144 1 -183 21 -58 49 -66 279 -69 113 -2 224 -1 248 3 56 8 93 42 112 101 16 52 35 63 86 50 20 -5 24 -13 24 -43 0 -95 -57 -177 -145 -207 -40 -13 -92 -16 -291 -16 -221 0 -248 2 -298 20 -101 38 -139 107 -140 250 -1 139 31 202 124 248 55 27 57 27 320 32 288 5 297 7 327 63 25 45 25 182 0 220 -34 53 -65 60 -272 65 -222 5 -326 -6 -361 -39 -13 -12 -30 -46 -39 -74 -8 -29 -22 -56 -31 -59 -136 -52 -91 201 45 256 53 22 102 26 330 27 192 1 246 -2 295 -16z m1233 -8 c102 -35 170 -118 180 -219 6 -61 -8 -79 -59 -74 -31 3 -34 7 -55 68 -38 112 -74 129 -298 137 -325 12 -399 -34 -412 -251 l-6 -96 405 0 c347 0 407 -2 418 -15 9 -11 11 -54 8 -157 -4 -160 -20 -213 -81 -276 -75 -78 -164 -102 -386 -102 -229 0 -312 21 -386 98 -68 69 -79 118 -83 377 -5 294 9 365 89 444 77 77 143 91 404 88 173 -3 219 -7 262 -22z"/>
<path d="M5306 5148 c-18 -26 -21 -90 -6 -119 9 -15 22 -19 63 -19 29 0 58 5 65 12 7 7 12 36 12 64 0 43 -4 56 -22 68 -34 24 -94 21 -112 -6z"/>
<path d="M6710 5106 c0 -78 14 -96 73 -96 58 0 69 10 75 68 6 69 -17 92 -93 92 l-55 0 0 -64z"/>
<path d="M5054 5145 c-19 -30 -15 -112 7 -126 21 -13 103 -11 117 3 18 18 15 113 -4 132 -9 10 -33 16 -59 16 -37 0 -48 -5 -61 -25z"/>
<path d="M6361 5149 c-17 -48 -1 -64 74 -67 l68 -3 -7 33 c-9 44 -17 50 -75 56 -46 4 -51 2 -60 -19z"/>
<path d="M6973 5163 c-19 -7 -16 -70 3 -77 9 -3 40 -6 70 -6 51 0 54 1 54 25 0 38 -33 65 -77 64 -21 0 -44 -3 -50 -6z"/>
<path d="M7372 5158 c-7 -7 -12 -21 -12 -33 0 -34 20 -45 82 -45 58 0 58 0 58 29 0 20 -8 35 -22 45 -27 19 -89 21 -106 4z"/>
<path d="M7728 5159 c-14 -8 -18 -23 -18 -67 0 -32 5 -63 12 -70 7 -7 33 -12 58 -12 25 0 51 5 58 12 7 7 12 38 12 70 0 46 -4 59 -19 68 -25 13 -81 13 -103 -1z"/>
<path d="M8290 5057 c0 -34 19 -47 70 -47 54 0 69 8 72 40 3 24 1 25 -69 28 -71 3 -73 2 -73 -21z"/>
<path d="M8890 5064 c0 -40 19 -54 75 -54 45 0 56 4 65 21 21 39 6 49 -70 49 -57 0 -70 -3 -70 -16z"/>
<path d="M9588 5159 c-14 -8 -18 -23 -18 -67 0 -32 5 -63 12 -70 13 -13 85 -16 112 -6 20 8 23 123 4 142 -15 15 -86 15 -110 1z"/>
<path d="M10526 5071 c-4 -5 -2 -21 4 -35 9 -24 15 -26 64 -26 44 0 57 4 66 19 23 44 14 51 -59 51 -39 0 -72 -4 -75 -9z"/>
<path d="M11160 5064 c0 -40 19 -54 75 -54 45 0 56 4 65 21 21 39 6 49 -70 49 -57 0 -70 -3 -70 -16z"/>
</g>
<g id="layer103" fill="#87e6fd" stroke="none">
<path d="M0 2825 l0 -2825 6000 0 6000 0 0 2825 0 2825 -6000 0 -6000 0 0 -2825z m5444 2429 c13 -12 16 -40 16 -137 l0 -122 -70 -3 c-63 -2 -73 0 -95 22 -20 20 -25 35 -25 73 0 27 7 58 15 70 19 27 74 39 115 25 30 -11 30 -11 30 24 l0 34 -65 0 c-37 0 -65 -4 -65 -10 0 -5 -7 -10 -15 -10 -19 0 -19 14 1 34 11 11 35 16 79 16 44 0 68 -5 79 -16z m1266 -23 l0 -39 64 -4 c87 -5 96 -15 96 -99 0 -59 -3 -70 -22 -83 -25 -18 -80 -21 -108 -6 -13 7 -21 7 -25 0 -19 -30 -25 2 -25 130 0 87 4 140 10 140 6 0 10 -17 10 -39z m-1730 -56 c0 -12 -14 -15 -65 -15 l-65 0 0 -121 c0 -92 -3 -120 -12 -117 -9 3 -14 39 -16 123 -1 65 0 125 2 132 8 20 156 18 156 -2z m193 4 c32 -17 37 -28 37 -91 0 -76 -20 -98 -88 -98 -63 0 -89 19 -97 73 -11 84 20 127 93 127 18 0 43 -5 55 -11z m377 -89 c0 -60 -4 -100 -10 -100 -6 0 -10 40 -10 100 0 60 4 100 10 100 6 0 10 -40 10 -100z m232 82 c15 -15 15 -69 0 -84 -6 -6 -39 -14 -74 -17 -56 -5 -63 -9 -66 -28 -3 -22 0 -23 57 -23 34 0 61 4 61 10 0 6 7 10 15 10 19 0 19 -14 -1 -34 -19 -19 -124 -22 -142 -4 -16 16 -15 75 1 85 6 4 39 10 72 13 56 5 60 7 60 30 0 23 -4 25 -54 28 -38 2 -58 -1 -70 -12 -10 -9 -20 -13 -24 -10 -10 10 5 35 27 45 27 12 123 6 138 -9z m163 9 c3 -6 -7 -16 -22 -23 -26 -12 -28 -19 -31 -75 -3 -60 -2 -62 24 -65 40 -4 43 -28 5 -28 -26 0 -31 -4 -31 -24 0 -37 -19 -42 -26 -7 -4 17 -13 31 -20 31 -19 0 -18 19 1 26 10 4 15 21 15 54 0 62 14 98 42 110 30 12 36 12 43 1z m85 -97 c0 -56 -4 -94 -10 -94 -6 0 -10 40 -10 101 0 64 4 98 10 94 6 -3 10 -48 10 -101z m214 96 c17 -6 26 -17 26 -31 0 -21 -1 -21 -18 -6 -27 25 -108 23 -122 -2 -14 -27 -13 -94 2 -109 18 -18 98 -15 120 5 17 15 18 15 18 -5 0 -28 -28 -42 -84 -42 -66 0 -86 23 -86 98 0 58 11 85 40 95 25 9 77 8 104 -3z m212 0 c19 -7 30 -7 40 1 12 10 14 -3 14 -74 0 -77 -2 -87 -22 -101 -45 -32 -148 -11 -148 30 0 19 16 18 24 -1 4 -11 21 -15 61 -15 30 0 55 2 55 4 0 2 3 11 6 20 5 13 -3 16 -49 16 -69 0 -86 6 -98 37 -26 68 37 113 117 83z m609 1 c11 -5 25 -4 32 1 19 16 26 -13 21 -93 -5 -85 -18 -99 -90 -99 -35 0 -54 6 -68 20 -26 26 -16 48 10 25 25 -23 113 -17 118 8 3 15 -5 17 -54 17 -69 0 -94 18 -94 66 0 53 62 80 125 55z m145 -59 c0 -67 18 -99 57 -104 29 -3 45 -28 18 -28 -9 0 -29 7 -45 15 -27 14 -30 14 -30 0 0 -8 -4 -15 -10 -15 -6 0 -10 40 -10 101 0 64 4 98 10 94 6 -3 10 -32 10 -63z m257 57 c19 -7 29 -7 31 0 2 6 8 9 13 5 5 -3 9 -39 9 -80 0 -61 -4 -78 -20 -94 -28 -28 -112 -28 -140 0 -25 25 -16 49 9 26 27 -24 107 -21 121 4 10 19 8 20 -51 20 -74 0 -99 17 -99 66 0 55 58 79 127 53z m388 -9 c11 -9 15 -32 15 -81 0 -81 -16 -99 -92 -99 -68 0 -88 22 -88 98 0 58 11 84 40 96 24 9 108 0 125 -14z m329 10 c22 -8 26 -16 26 -49 0 -22 -5 -43 -12 -47 -6 -4 -39 -10 -72 -13 -54 -5 -61 -9 -64 -28 -3 -22 0 -23 57 -23 34 0 61 4 61 10 0 6 7 10 15 10 19 0 19 -14 -1 -34 -19 -19 -124 -22 -142 -4 -16 16 -15 75 1 85 6 4 39 10 72 13 56 5 60 7 60 30 0 24 -4 25 -59 28 -46 2 -62 -1 -68 -12 -10 -18 -28 -21 -28 -6 0 6 9 19 20 30 22 22 90 27 134 10z m236 -3 c15 -7 26 -23 28 -37 l3 -25 -20 23 c-15 17 -30 22 -70 22 -46 0 -53 -3 -61 -26 -6 -14 -10 -27 -10 -30 0 -2 36 -4 80 -4 l80 0 0 -39 c0 -51 -26 -71 -92 -71 -68 0 -88 22 -88 98 0 31 4 62 8 68 22 33 96 44 142 21z m217 4 c20 -6 35 -6 39 0 15 25 24 -11 24 -97 0 -72 -3 -95 -12 -92 -8 3 -14 30 -16 73 -2 38 -8 75 -14 82 -6 7 -30 13 -54 13 -54 0 -64 -16 -64 -104 0 -37 -4 -66 -10 -66 -15 0 -13 153 3 172 11 15 31 23 62 27 6 0 25 -3 42 -8z m387 -2 c28 -13 41 -38 27 -52 -6 -6 -13 -1 -21 12 -10 19 -18 22 -68 19 -54 -3 -57 -5 -60 -30 l-3 -28 80 0 81 0 0 -30 c0 -49 -38 -80 -99 -80 -42 0 -53 4 -70 26 -37 47 -23 146 21 164 32 12 83 12 112 -1z m444 -5 c12 -8 22 -22 22 -30 0 -19 -16 -18 -24 1 -7 19 -96 21 -114 3 -13 -13 -16 -85 -6 -112 5 -12 20 -16 59 -16 30 0 57 5 60 10 9 15 25 12 25 -5 0 -36 -110 -49 -149 -17 -19 15 -22 25 -19 87 3 63 5 71 28 82 34 17 91 16 118 -3z m251 -8 c11 -12 16 -34 16 -77 0 -77 -22 -99 -96 -99 -67 0 -89 23 -89 91 0 58 12 86 43 99 31 14 106 5 126 -14z m113 -66 l3 -75 45 0 45 0 5 78 c3 42 10 77 15 77 6 0 12 -35 15 -77 l5 -78 45 0 45 0 5 78 c7 103 25 100 25 -4 0 -96 -14 -114 -80 -105 -51 8 -62 8 -108 0 -23 -4 -43 -2 -51 5 -10 8 -16 9 -21 1 -3 -6 -11 -8 -16 -5 -10 7 -13 178 -2 188 14 15 22 -11 25 -83z m348 17 c0 -84 8 -97 61 -97 45 0 49 9 49 101 0 39 4 69 10 69 6 0 10 -31 10 -73 0 -84 8 -97 61 -97 45 0 49 9 49 101 0 39 4 69 10 69 6 0 10 -34 10 -82 0 -62 -4 -86 -17 -100 -20 -22 -85 -24 -103 -3 -12 14 -15 14 -30 0 -19 -17 -63 -20 -91 -5 -13 7 -19 7 -19 0 0 -5 -4 -10 -10 -10 -6 0 -10 40 -10 100 0 60 4 100 10 100 6 0 10 -31 10 -73z m473 64 c27 -11 43 -39 28 -54 -6 -6 -13 -1 -20 12 -9 16 -21 21 -56 21 -59 0 -75 -8 -75 -36 0 -23 2 -24 80 -24 l80 0 0 -35 c0 -51 -28 -75 -89 -75 -65 0 -91 22 -98 80 -6 55 9 98 39 110 30 12 81 12 111 1z m127 -48 c0 -73 17 -106 54 -113 31 -5 49 -30 21 -30 -9 0 -29 7 -45 15 -27 14 -30 14 -30 0 0 -8 -4 -15 -10 -15 -6 0 -10 40 -10 100 0 60 4 100 10 100 6 0 10 -26 10 -57z m274 47 c16 -6 26 -17 26 -30 0 -23 -15 -27 -24 -5 -4 11 -20 15 -55 15 -56 0 -71 -15 -71 -70 0 -54 15 -70 67 -70 29 0 53 6 65 17 17 15 18 15 18 -5 0 -28 -28 -42 -84 -42 -66 0 -86 23 -86 98 0 58 11 85 40 95 25 9 77 8 104 -3z m240 -1 c28 -13 41 -38 27 -52 -6 -6 -13 -1 -21 12 -10 19 -18 22 -68 19 -54 -3 -57 -5 -60 -30 l-3 -27 78 -3 c75 -3 78 -4 81 -29 2 -14 -6 -37 -18 -52 -18 -23 -29 -27 -73 -27 -71 1 -89 17 -95 83 -5 60 8 94 41 107 31 12 82 12 111 -1z m126 -9 c0 -11 -7 -20 -15 -20 -15 0 -21 21 -8 33 12 13 23 7 23 -13z m-2170 -95 c0 -12 -14 -15 -65 -15 -60 0 -75 6 -58 23 3 4 33 7 65 7 45 0 58 -3 58 -15z m-3673 -161 c-10 -10 -58 37 -50 48 3 6 17 -2 31 -16 14 -14 23 -29 19 -32z m463 21 c0 -19 -20 -29 -32 -17 -15 15 -2 43 17 36 8 -3 15 -12 15 -19z m-1965 -28 c51 -23 81 -52 108 -102 22 -40 22 -47 25 -661 3 -684 5 -654 -57 -654 -37 0 -51 17 -51 62 l0 39 -37 -30 c-73 -58 -102 -65 -296 -69 -314 -7 -418 38 -479 206 -18 48 -22 87 -26 247 -8 350 34 463 195 526 48 18 83 23 201 27 212 6 309 -18 398 -100 l46 -42 -4 184 c-6 280 3 271 -308 278 -328 7 -385 -8 -409 -104 -14 -53 -46 -74 -86 -56 -20 9 -25 19 -25 50 0 76 44 158 100 187 57 29 108 34 385 32 245 -2 285 -4 320 -20z m-2328 -433 c15 -24 15 -29 2 -53 l-15 -26 -339 -5 -340 -5 -5 -623 c-4 -539 -7 -624 -20 -632 -20 -13 -47 -12 -71 0 -18 10 -19 29 -19 678 0 506 3 671 12 680 9 9 110 12 395 12 l383 0 17 -26z m985 -2 c72 -29 131 -87 160 -160 22 -54 23 -69 23 -312 0 -288 -6 -323 -71 -399 -79 -91 -173 -115 -436 -109 -156 4 -191 8 -236 26 -81 31 -117 65 -154 139 l-33 67 -3 248 c-3 200 0 259 12 301 22 75 67 141 118 171 82 48 134 56 358 53 185 -3 211 -5 262 -25z m1957 15 c7 -9 12 -114 13 -318 l3 -304 448 -3 447 -2 0 308 c0 226 3 311 12 320 15 15 53 16 79 2 18 -10 19 -28 19 -672 0 -601 -2 -663 -17 -680 -21 -23 -55 -23 -76 0 -15 16 -17 56 -19 313 l-3 294 -445 0 -445 0 -3 -294 c-2 -257 -4 -297 -19 -313 -20 -22 -42 -23 -71 -2 l-22 15 0 659 c0 585 2 660 16 674 19 19 68 21 83 3z m2092 0 c116 -28 191 -94 225 -200 25 -76 32 -433 10 -536 -26 -126 -78 -190 -188 -233 -45 -18 -80 -22 -236 -26 -301 -7 -401 28 -471 167 -32 63 -41 137 -41 339 0 216 10 281 53 355 68 116 151 145 417 146 112 0 195 -4 231 -12z m1246 -17 c40 -14 81 -38 113 -67 l50 -45 0 55 c0 37 5 61 16 71 18 19 65 21 82 4 17 -17 17 -969 0 -986 -17 -17 -64 -15 -82 4 -14 13 -16 59 -16 348 0 222 -4 344 -11 367 -7 19 -26 49 -43 67 -65 70 -156 96 -336 96 -188 1 -248 -26 -287 -124 -14 -39 -17 -93 -21 -395 -2 -222 -7 -354 -14 -362 -14 -18 -73 -16 -87 1 -9 11 -11 109 -9 383 3 355 4 370 26 424 15 38 39 72 71 102 46 43 70 54 176 81 11 3 85 3 165 2 118 -3 157 -8 207 -26z m1367 13 c122 -34 172 -125 164 -297 -5 -104 -25 -154 -82 -204 -56 -49 -89 -54 -371 -61 -284 -7 -304 -11 -325 -67 -13 -34 -13 -144 1 -183 21 -58 49 -66 279 -69 113 -2 224 -1 248 3 56 8 93 42 112 101 16 52 35 63 86 50 20 -5 24 -13 24 -43 0 -95 -57 -177 -145 -207 -40 -13 -92 -16 -291 -16 -221 0 -248 2 -298 20 -101 38 -139 107 -140 250 -1 139 31 202 124 248 55 27 57 27 320 32 288 5 297 7 327 63 25 45 25 182 0 220 -34 53 -65 60 -272 65 -222 5 -326 -6 -361 -39 -13 -12 -30 -46 -39 -74 -8 -29 -22 -56 -31 -59 -136 -52 -91 201 45 256 53 22 102 26 330 27 192 1 246 -2 295 -16z m1233 -8 c102 -35 170 -118 180 -219 6 -61 -8 -79 -59 -74 -31 3 -34 7 -55 68 -38 112 -74 129 -298 137 -325 12 -399 -34 -412 -251 l-6 -96 405 0 c347 0 407 -2 418 -15 9 -11 11 -54 8 -157 -4 -160 -20 -213 -81 -276 -75 -78 -164 -102 -386 -102 -229 0 -312 21 -386 98 -68 69 -79 118 -83 377 -5 294 9 365 89 444 77 77 143 91 404 88 173 -3 219 -7 262 -22z m-5305 -1801 c31 -20 37 -30 40 -64 3 -40 5 -42 61 -65 32 -12 83 -42 113 -65 l56 -42 32 17 c32 18 33 17 82 -10 80 -46 79 -45 76 -128 -3 -71 -5 -76 -30 -86 l-27 -11 1 -141 c1 -136 2 -141 25 -157 34 -23 34 -23 29 -101 l-5 -72 -61 -34 -61 -33 -32 19 -32 19 -53 -40 c-29 -22 -80 -51 -112 -64 -57 -23 -59 -25 -64 -67 -5 -41 -9 -45 -64 -76 -32 -18 -63 -33 -68 -33 -6 0 -37 16 -69 36 -56 34 -59 37 -59 75 0 29 -5 41 -17 46 -55 18 -124 55 -167 87 l-49 38 -36 -20 -37 -21 -62 37 -62 36 0 76 c0 71 1 76 27 92 l28 17 0 139 0 140 -28 16 c-27 15 -28 17 -25 93 l3 77 59 34 58 34 39 -17 38 -18 35 31 c44 38 109 76 159 92 35 11 37 14 37 54 0 41 1 43 63 78 69 40 66 40 159 -18z m3867 23 c-86 -78 -372 -321 -417 -355 -52 -39 -152 -125 -206 -177 -45 -45 -177 -159 -202 -176 -12 -8 -95 -77 -184 -154 -89 -77 -187 -159 -217 -181 -52 -41 -122 -101 -193 -168 -65 -61 -205 -181 -230 -198 -14 -9 -115 -93 -225 -187 -110 -94 -220 -188 -244 -209 -24 -20 -69 -60 -100 -87 -108 -97 -207 -182 -301 -258 -52 -42 -129 -105 -170 -141 l-75 -65 -908 -1 -908 0 103 87 c57 48 137 117 178 153 41 37 113 97 160 135 47 38 99 81 115 97 100 93 247 221 281 246 21 16 127 104 234 195 107 92 224 191 258 219 35 29 78 67 95 83 57 55 201 180 242 210 47 36 410 345 576 492 36 32 115 100 175 150 60 51 170 144 244 207 l135 115 910 0 910 0 -36 -32z m-4664 -679 c27 -186 99 -323 225 -428 33 -27 48 -46 42 -52 -18 -18 -50 2 -121 77 -105 111 -180 276 -181 396 0 63 25 68 35 7z m465 -564 c0 -17 -26 -18 -69 -3 -29 10 -39 27 -25 41 10 11 94 -23 94 -38z"/>
<path d="M5168 2652 c-23 -14 -28 -24 -28 -54 0 -43 0 -43 40 -23 26 13 30 21 30 55 0 44 -3 46 -42 22z"/>
<path d="M5186 2534 l-28 -16 31 -19 c39 -23 50 -23 79 -1 l24 18 -26 17 c-31 21 -43 21 -80 1z"/>
<path d="M5035 2506 c-27 -13 -70 -38 -93 -55 -40 -30 -43 -34 -28 -50 12 -13 14 -29 9 -68 l-6 -52 49 -30 c26 -17 53 -31 60 -31 7 0 51 23 98 51 l86 50 0 63 0 63 -55 28 c-30 16 -55 35 -55 42 0 18 -7 16 -65 -11z"/>
<path d="M5357 2516 c-3 -8 -30 -27 -59 -42 l-53 -29 -3 -61 -3 -62 92 -53 92 -52 53 27 54 28 -1 59 c-1 33 4 66 10 73 9 11 4 20 -26 45 -32 26 -130 81 -146 81 -3 0 -7 -6 -10 -14z"/>
<path d="M4740 2397 c-25 -13 -48 -73 -33 -88 5 -5 23 0 41 11 24 15 32 27 32 49 0 37 -9 43 -40 28z"/>
<path d="M5589 2391 c-23 -18 -36 -62 -23 -82 9 -15 61 18 68 43 15 59 -1 74 -45 39z"/>
<path d="M4756 2280 l-29 -19 33 -19 c31 -19 35 -19 66 -4 19 8 34 18 34 21 0 7 -59 41 -68 40 -4 0 -20 -9 -36 -19z"/>
<path d="M5618 2282 c-35 -21 -35 -27 2 -42 24 -10 36 -10 60 0 37 15 37 21 1 43 -35 20 -30 20 -63 -1z"/>
<path d="M5118 2228 l-68 -40 0 -89 c0 -49 2 -89 4 -89 2 0 35 18 72 40 77 45 82 53 83 153 1 48 -3 67 -11 66 -7 0 -43 -19 -80 -41z"/>
<path d="M5250 2181 l0 -90 68 -41 c38 -22 71 -40 75 -40 4 0 7 40 7 89 l0 89 -67 39 c-38 21 -71 40 -75 41 -5 2 -8 -37 -8 -87z"/>
<path d="M4850 2210 c-25 -17 -52 -29 -62 -26 -20 5 -28 -20 -28 -95 0 -77 10 -121 25 -115 7 2 34 -9 59 -25 26 -16 52 -29 57 -29 6 0 33 12 60 28 l49 27 2 78 c1 42 2 89 2 104 1 21 -8 32 -44 54 -58 35 -66 35 -120 -1z"/>
<path d="M5488 2213 l-48 -26 0 -106 0 -106 50 -27 c28 -16 55 -28 62 -28 7 0 29 12 50 26 21 15 48 27 60 28 19 1 24 9 30 54 4 28 4 76 0 105 -6 42 -11 51 -26 49 -9 -2 -39 11 -65 27 -26 17 -52 31 -57 31 -5 0 -30 -12 -56 -27z"/>
<path d="M5141 2015 c-73 -43 -73 -43 -50 -58 74 -45 130 -77 135 -77 11 0 144 82 144 89 0 7 -142 92 -151 90 -2 0 -37 -20 -78 -44z"/>
<path d="M4975 1917 c-49 -32 -50 -33 -51 -85 -1 -29 -5 -63 -8 -76 -5 -20 2 -29 47 -60 28 -19 71 -42 94 -50 37 -13 42 -13 45 0 2 9 26 28 53 43 l50 28 0 68 0 68 -85 48 c-47 27 -87 49 -90 49 -3 0 -28 -15 -55 -33z"/>
<path d="M5328 1898 l-88 -50 0 -64 0 -64 49 -25 c27 -13 56 -34 64 -45 14 -20 15 -20 84 15 82 41 111 68 94 88 -7 9 -9 35 -5 74 l7 60 -55 32 c-31 17 -57 31 -59 30 -2 0 -43 -23 -91 -51z"/>
<path d="M4744 1903 c-24 -12 -33 -24 -38 -51 -3 -20 -3 -38 -1 -41 3 -2 21 3 40 12 31 15 35 21 35 57 0 22 -1 40 -2 39 -2 0 -17 -7 -34 -16z"/>
<path d="M5593 1898 c-21 -10 -40 -68 -28 -88 8 -13 65 22 65 40 0 8 3 25 6 38 7 24 -6 28 -43 10z"/>
<path d="M4758 1784 c-16 -8 -28 -17 -28 -19 0 -7 58 -35 72 -35 7 0 24 9 37 19 l24 19 -31 16 c-37 19 -40 19 -74 0z"/>
<path d="M5611 1781 l-24 -19 32 -17 c28 -14 38 -15 62 -4 42 17 44 26 10 44 -38 19 -51 19 -80 -4z"/>
<path d="M5168 1654 c-24 -12 -28 -21 -28 -55 0 -22 3 -39 8 -37 61 30 62 31 62 70 0 42 -3 44 -42 22z"/>
<path d="M5198 1544 c-35 -19 -35 -26 1 -47 28 -16 31 -16 60 0 17 10 31 21 31 24 0 5 -19 16 -60 36 -3 1 -17 -5 -32 -13z"/>
</g>
<g id="layer104" fill="#ffffff" stroke="none">
<path d="M0 2825 l0 -2825 6000 0 6000 0 0 2825 0 2825 -6000 0 -6000 0 0 -2825z m5444 2429 c13 -12 16 -40 16 -137 l0 -122 -70 -3 c-63 -2 -73 0 -95 22 -20 20 -25 35 -25 73 0 27 7 58 15 70 19 27 74 39 115 25 30 -11 30 -11 30 24 l0 34 -65 0 c-37 0 -65 -4 -65 -10 0 -5 -7 -10 -15 -10 -19 0 -19 14 1 34 11 11 35 16 79 16 44 0 68 -5 79 -16z m1266 -23 l0 -39 64 -4 c87 -5 96 -15 96 -99 0 -59 -3 -70 -22 -83 -25 -18 -80 -21 -108 -6 -13 7 -21 7 -25 0 -19 -30 -25 2 -25 130 0 87 4 140 10 140 6 0 10 -17 10 -39z m-1730 -56 c0 -12 -14 -15 -65 -15 l-65 0 0 -121 c0 -92 -3 -120 -12 -117 -9 3 -14 39 -16 123 -1 65 0 125 2 132 8 20 156 18 156 -2z m193 4 c32 -17 37 -28 37 -91 0 -76 -20 -98 -88 -98 -63 0 -89 19 -97 73 -11 84 20 127 93 127 18 0 43 -5 55 -11z m377 -89 c0 -60 -4 -100 -10 -100 -6 0 -10 40 -10 100 0 60 4 100 10 100 6 0 10 -40 10 -100z m232 82 c15 -15 15 -69 0 -84 -6 -6 -39 -14 -74 -17 -56 -5 -63 -9 -66 -28 -3 -22 0 -23 57 -23 34 0 61 4 61 10 0 6 7 10 15 10 19 0 19 -14 -1 -34 -19 -19 -124 -22 -142 -4 -16 16 -15 75 1 85 6 4 39 10 72 13 56 5 60 7 60 30 0 23 -4 25 -54 28 -38 2 -58 -1 -70 -12 -10 -9 -20 -13 -24 -10 -10 10 5 35 27 45 27 12 123 6 138 -9z m163 9 c3 -6 -7 -16 -22 -23 -26 -12 -28 -19 -31 -75 -3 -60 -2 -62 24 -65 40 -4 43 -28 5 -28 -26 0 -31 -4 -31 -24 0 -37 -19 -42 -26 -7 -4 17 -13 31 -20 31 -19 0 -18 19 1 26 10 4 15 21 15 54 0 62 14 98 42 110 30 12 36 12 43 1z m85 -97 c0 -56 -4 -94 -10 -94 -6 0 -10 40 -10 101 0 64 4 98 10 94 6 -3 10 -48 10 -101z m214 96 c17 -6 26 -17 26 -31 0 -21 -1 -21 -18 -6 -27 25 -108 23 -122 -2 -14 -27 -13 -94 2 -109 18 -18 98 -15 120 5 17 15 18 15 18 -5 0 -28 -28 -42 -84 -42 -66 0 -86 23 -86 98 0 58 11 85 40 95 25 9 77 8 104 -3z m212 0 c19 -7 30 -7 40 1 12 10 14 -3 14 -74 0 -77 -2 -87 -22 -101 -45 -32 -148 -11 -148 30 0 19 16 18 24 -1 4 -11 21 -15 61 -15 30 0 55 2 55 4 0 2 3 11 6 20 5 13 -3 16 -49 16 -69 0 -86 6 -98 37 -26 68 37 113 117 83z m609 1 c11 -5 25 -4 32 1 19 16 26 -13 21 -93 -5 -85 -18 -99 -90 -99 -35 0 -54 6 -68 20 -26 26 -16 48 10 25 25 -23 113 -17 118 8 3 15 -5 17 -54 17 -69 0 -94 18 -94 66 0 53 62 80 125 55z m145 -59 c0 -67 18 -99 57 -104 29 -3 45 -28 18 -28 -9 0 -29 7 -45 15 -27 14 -30 14 -30 0 0 -8 -4 -15 -10 -15 -6 0 -10 40 -10 101 0 64 4 98 10 94 6 -3 10 -32 10 -63z m257 57 c19 -7 29 -7 31 0 2 6 8 9 13 5 5 -3 9 -39 9 -80 0 -61 -4 -78 -20 -94 -28 -28 -112 -28 -140 0 -25 25 -16 49 9 26 27 -24 107 -21 121 4 10 19 8 20 -51 20 -74 0 -99 17 -99 66 0 55 58 79 127 53z m388 -9 c11 -9 15 -32 15 -81 0 -81 -16 -99 -92 -99 -68 0 -88 22 -88 98 0 58 11 84 40 96 24 9 108 0 125 -14z m329 10 c22 -8 26 -16 26 -49 0 -22 -5 -43 -12 -47 -6 -4 -39 -10 -72 -13 -54 -5 -61 -9 -64 -28 -3 -22 0 -23 57 -23 34 0 61 4 61 10 0 6 7 10 15 10 19 0 19 -14 -1 -34 -19 -19 -124 -22 -142 -4 -16 16 -15 75 1 85 6 4 39 10 72 13 56 5 60 7 60 30 0 24 -4 25 -59 28 -46 2 -62 -1 -68 -12 -10 -18 -28 -21 -28 -6 0 6 9 19 20 30 22 22 90 27 134 10z m236 -3 c15 -7 26 -23 28 -37 l3 -25 -20 23 c-15 17 -30 22 -70 22 -46 0 -53 -3 -61 -26 -6 -14 -10 -27 -10 -30 0 -2 36 -4 80 -4 l80 0 0 -39 c0 -51 -26 -71 -92 -71 -68 0 -88 22 -88 98 0 31 4 62 8 68 22 33 96 44 142 21z m217 4 c20 -6 35 -6 39 0 15 25 24 -11 24 -97 0 -72 -3 -95 -12 -92 -8 3 -14 30 -16 73 -2 38 -8 75 -14 82 -6 7 -30 13 -54 13 -54 0 -64 -16 -64 -104 0 -37 -4 -66 -10 -66 -15 0 -13 153 3 172 11 15 31 23 62 27 6 0 25 -3 42 -8z m387 -2 c28 -13 41 -38 27 -52 -6 -6 -13 -1 -21 12 -10 19 -18 22 -68 19 -54 -3 -57 -5 -60 -30 l-3 -28 80 0 81 0 0 -30 c0 -49 -38 -80 -99 -80 -42 0 -53 4 -70 26 -37 47 -23 146 21 164 32 12 83 12 112 -1z m444 -5 c12 -8 22 -22 22 -30 0 -19 -16 -18 -24 1 -7 19 -96 21 -114 3 -13 -13 -16 -85 -6 -112 5 -12 20 -16 59 -16 30 0 57 5 60 10 9 15 25 12 25 -5 0 -36 -110 -49 -149 -17 -19 15 -22 25 -19 87 3 63 5 71 28 82 34 17 91 16 118 -3z m251 -8 c11 -12 16 -34 16 -77 0 -77 -22 -99 -96 -99 -67 0 -89 23 -89 91 0 58 12 86 43 99 31 14 106 5 126 -14z m113 -66 l3 -75 45 0 45 0 5 78 c3 42 10 77 15 77 6 0 12 -35 15 -77 l5 -78 45 0 45 0 5 78 c7 103 25 100 25 -4 0 -96 -14 -114 -80 -105 -51 8 -62 8 -108 0 -23 -4 -43 -2 -51 5 -10 8 -16 9 -21 1 -3 -6 -11 -8 -16 -5 -10 7 -13 178 -2 188 14 15 22 -11 25 -83z m348 17 c0 -84 8 -97 61 -97 45 0 49 9 49 101 0 39 4 69 10 69 6 0 10 -31 10 -73 0 -84 8 -97 61 -97 45 0 49 9 49 101 0 39 4 69 10 69 6 0 10 -34 10 -82 0 -62 -4 -86 -17 -100 -20 -22 -85 -24 -103 -3 -12 14 -15 14 -30 0 -19 -17 -63 -20 -91 -5 -13 7 -19 7 -19 0 0 -5 -4 -10 -10 -10 -6 0 -10 40 -10 100 0 60 4 100 10 100 6 0 10 -31 10 -73z m473 64 c27 -11 43 -39 28 -54 -6 -6 -13 -1 -20 12 -9 16 -21 21 -56 21 -59 0 -75 -8 -75 -36 0 -23 2 -24 80 -24 l80 0 0 -35 c0 -51 -28 -75 -89 -75 -65 0 -91 22 -98 80 -6 55 9 98 39 110 30 12 81 12 111 1z m127 -48 c0 -73 17 -106 54 -113 31 -5 49 -30 21 -30 -9 0 -29 7 -45 15 -27 14 -30 14 -30 0 0 -8 -4 -15 -10 -15 -6 0 -10 40 -10 100 0 60 4 100 10 100 6 0 10 -26 10 -57z m274 47 c16 -6 26 -17 26 -30 0 -23 -15 -27 -24 -5 -4 11 -20 15 -55 15 -56 0 -71 -15 -71 -70 0 -54 15 -70 67 -70 29 0 53 6 65 17 17 15 18 15 18 -5 0 -28 -28 -42 -84 -42 -66 0 -86 23 -86 98 0 58 11 85 40 95 25 9 77 8 104 -3z m240 -1 c28 -13 41 -38 27 -52 -6 -6 -13 -1 -21 12 -10 19 -18 22 -68 19 -54 -3 -57 -5 -60 -30 l-3 -27 78 -3 c75 -3 78 -4 81 -29 2 -14 -6 -37 -18 -52 -18 -23 -29 -27 -73 -27 -71 1 -89 17 -95 83 -5 60 8 94 41 107 31 12 82 12 111 -1z m126 -9 c0 -11 -7 -20 -15 -20 -15 0 -21 21 -8 33 12 13 23 7 23 -13z m-2170 -95 c0 -12 -14 -15 -65 -15 -60 0 -75 6 -58 23 3 4 33 7 65 7 45 0 58 -3 58 -15z m-3673 -161 c-10 -10 -58 37 -50 48 3 6 17 -2 31 -16 14 -14 23 -29 19 -32z m463 21 c0 -19 -20 -29 -32 -17 -15 15 -2 43 17 36 8 -3 15 -12 15 -19z m-1965 -28 c51 -23 81 -52 108 -102 22 -40 22 -47 25 -661 3 -684 5 -654 -57 -654 -37 0 -51 17 -51 62 l0 39 -37 -30 c-73 -58 -102 -65 -296 -69 -314 -7 -418 38 -479 206 -18 48 -22 87 -26 247 -8 350 34 463 195 526 48 18 83 23 201 27 212 6 309 -18 398 -100 l46 -42 -4 184 c-6 280 3 271 -308 278 -328 7 -385 -8 -409 -104 -14 -53 -46 -74 -86 -56 -20 9 -25 19 -25 50 0 76 44 158 100 187 57 29 108 34 385 32 245 -2 285 -4 320 -20z m-2328 -433 c15 -24 15 -29 2 -53 l-15 -26 -339 -5 -340 -5 -5 -623 c-4 -539 -7 -624 -20 -632 -20 -13 -47 -12 -71 0 -18 10 -19 29 -19 678 0 506 3 671 12 680 9 9 110 12 395 12 l383 0 17 -26z m985 -2 c72 -29 131 -87 160 -160 22 -54 23 -69 23 -312 0 -288 -6 -323 -71 -399 -79 -91 -173 -115 -436 -109 -156 4 -191 8 -236 26 -81 31 -117 65 -154 139 l-33 67 -3 248 c-3 200 0 259 12 301 22 75 67 141 118 171 82 48 134 56 358 53 185 -3 211 -5 262 -25z m1957 15 c7 -9 12 -114 13 -318 l3 -304 448 -3 447 -2 0 308 c0 226 3 311 12 320 15 15 53 16 79 2 18 -10 19 -28 19 -672 0 -601 -2 -663 -17 -680 -21 -23 -55 -23 -76 0 -15 16 -17 56 -19 313 l-3 294 -445 0 -445 0 -3 -294 c-2 -257 -4 -297 -19 -313 -20 -22 -42 -23 -71 -2 l-22 15 0 659 c0 585 2 660 16 674 19 19 68 21 83 3z m2092 0 c116 -28 191 -94 225 -200 25 -76 32 -433 10 -536 -26 -126 -78 -190 -188 -233 -45 -18 -80 -22 -236 -26 -301 -7 -401 28 -471 167 -32 63 -41 137 -41 339 0 216 10 281 53 355 68 116 151 145 417 146 112 0 195 -4 231 -12z m1246 -17 c40 -14 81 -38 113 -67 l50 -45 0 55 c0 37 5 61 16 71 18 19 65 21 82 4 17 -17 17 -969 0 -986 -17 -17 -64 -15 -82 4 -14 13 -16 59 -16 348 0 222 -4 344 -11 367 -7 19 -26 49 -43 67 -65 70 -156 96 -336 96 -188 1 -248 -26 -287 -124 -14 -39 -17 -93 -21 -395 -2 -222 -7 -354 -14 -362 -14 -18 -73 -16 -87 1 -9 11 -11 109 -9 383 3 355 4 370 26 424 15 38 39 72 71 102 46 43 70 54 176 81 11 3 85 3 165 2 118 -3 157 -8 207 -26z m1367 13 c122 -34 172 -125 164 -297 -5 -104 -25 -154 -82 -204 -56 -49 -89 -54 -371 -61 -284 -7 -304 -11 -325 -67 -13 -34 -13 -144 1 -183 21 -58 49 -66 279 -69 113 -2 224 -1 248 3 56 8 93 42 112 101 16 52 35 63 86 50 20 -5 24 -13 24 -43 0 -95 -57 -177 -145 -207 -40 -13 -92 -16 -291 -16 -221 0 -248 2 -298 20 -101 38 -139 107 -140 250 -1 139 31 202 124 248 55 27 57 27 320 32 288 5 297 7 327 63 25 45 25 182 0 220 -34 53 -65 60 -272 65 -222 5 -326 -6 -361 -39 -13 -12 -30 -46 -39 -74 -8 -29 -22 -56 -31 -59 -136 -52 -91 201 45 256 53 22 102 26 330 27 192 1 246 -2 295 -16z m1233 -8 c102 -35 170 -118 180 -219 6 -61 -8 -79 -59 -74 -31 3 -34 7 -55 68 -38 112 -74 129 -298 137 -325 12 -399 -34 -412 -251 l-6 -96 405 0 c347 0 407 -2 418 -15 9 -11 11 -54 8 -157 -4 -160 -20 -213 -81 -276 -75 -78 -164 -102 -386 -102 -229 0 -312 21 -386 98 -68 69 -79 118 -83 377 -5 294 9 365 89 444 77 77 143 91 404 88 173 -3 219 -7 262 -22z m-7811 -1806 c43 -39 97 -88 119 -108 22 -21 164 -145 315 -276 151 -132 331 -289 400 -349 69 -61 136 -119 149 -131 13 -11 35 -31 50 -45 39 -38 158 -142 456 -400 301 -261 327 -284 366 -321 16 -15 47 -41 69 -59 23 -18 40 -38 38 -44 -4 -15 -241 -227 -250 -223 -12 4 -423 349 -589 493 -81 72 -384 327 -578 489 -56 46 -179 152 -216 186 -22 20 -96 83 -165 141 -382 318 -461 386 -525 443 -38 35 -83 74 -100 86 -16 13 -35 28 -41 34 -6 6 -48 42 -93 79 -44 38 -81 71 -81 73 0 1 134 3 298 3 l299 0 79 -71z m2507 4 c33 -21 37 -28 37 -63 0 -30 5 -42 18 -47 57 -19 129 -57 168 -89 l45 -37 33 18 c32 18 33 18 82 -10 80 -46 79 -45 76 -128 -3 -71 -5 -76 -30 -86 l-27 -11 1 -141 c1 -136 2 -141 25 -157 34 -23 34 -23 29 -101 l-5 -72 -61 -34 -61 -33 -32 19 -32 19 -54 -41 c-30 -23 -80 -52 -112 -64 -56 -23 -58 -25 -63 -67 -5 -40 -9 -44 -64 -75 -32 -18 -63 -33 -68 -33 -6 0 -37 16 -69 36 -56 34 -59 37 -59 75 0 29 -5 41 -17 46 -55 18 -124 55 -167 87 l-49 38 -36 -20 -37 -21 -62 37 -62 36 0 76 c0 71 1 76 27 92 l28 17 0 139 0 140 -28 16 c-27 15 -28 17 -25 93 l3 77 59 34 58 34 39 -17 38 -18 35 31 c44 38 109 76 159 92 35 11 37 14 37 54 0 41 1 43 63 78 69 40 66 40 160 -19z m3866 24 c-86 -78 -372 -321 -417 -355 -52 -39 -152 -125 -206 -177 -45 -45 -177 -159 -202 -176 -12 -8 -95 -77 -184 -154 -89 -77 -187 -159 -217 -181 -52 -41 -122 -101 -193 -168 -65 -61 -205 -181 -230 -198 -14 -9 -115 -93 -225 -187 -110 -94 -220 -188 -244 -209 -24 -20 -69 -60 -100 -87 -108 -97 -207 -182 -301 -258 -52 -42 -129 -105 -170 -141 l-75 -65 -908 -1 -908 0 103 87 c57 48 137 117 178 153 41 37 113 97 160 135 47 38 99 81 115 97 100 93 247 221 281 246 21 16 127 104 234 195 107 92 224 191 258 219 35 29 78 67 95 83 57 55 201 180 242 210 47 36 410 345 576 492 36 32 115 100 175 150 60 51 170 144 244 207 l135 115 910 0 910 0 -36 -32z m-4665 -659 c2 -13 9 -50 14 -83 23 -136 76 -231 191 -343 57 -56 72 -75 61 -82 -19 -11 -35 -2 -100 62 -111 107 -187 260 -197 395 -5 63 -4 73 10 73 9 0 19 -10 21 -22z m455 -568 c17 -9 20 -14 11 -25 -11 -13 -33 -10 -82 10 -18 7 -24 26 -12 37 7 7 52 -5 83 -22z"/>
<path d="M5304 5146 c-3 -7 -4 -38 -2 -67 l3 -54 60 0 60 0 3 59 c2 41 -1 62 -10 67 -22 14 -108 11 -114 -5z"/>
<path d="M6710 5116 c0 -25 4 -56 10 -70 9 -24 15 -26 64 -26 40 0 55 4 60 16 10 27 7 99 -6 112 -7 7 -38 12 -70 12 l-58 0 0 -44z"/>
<path d="M5062 5148 c-13 -13 -16 -96 -3 -116 5 -9 25 -12 62 -10 l54 3 0 65 0 65 -50 3 c-30 2 -55 -2 -63 -10z"/>
<path d="M6367 5153 c-14 -13 -6 -53 12 -63 11 -5 40 -10 65 -10 44 0 46 1 46 30 0 19 -7 33 -19 40 -22 11 -94 14 -104 3z"/>
<path d="M6966 5144 c-16 -41 11 -64 75 -64 47 0 49 1 49 28 0 40 -17 52 -71 52 -33 0 -49 -5 -53 -16z"/>
<path d="M7368 5143 c-8 -35 3 -52 36 -58 79 -15 119 13 80 56 -24 26 -110 27 -116 2z"/>
<path d="M7720 5141 c-14 -27 -13 -94 2 -109 19 -19 114 -16 122 4 10 27 7 99 -6 112 -7 7 -33 12 -60 12 -37 0 -50 -4 -58 -19z"/>
<path d="M8299 5048 c7 -19 17 -24 61 -26 36 -2 56 1 61 10 20 31 10 38 -61 38 -68 0 -69 -1 -61 -22z"/>
<path d="M8902 5048 c3 -21 8 -23 63 -23 55 0 60 2 63 23 3 21 0 22 -63 22 -63 0 -66 -1 -63 -22z"/>
<path d="M9584 5146 c-3 -7 -4 -38 -2 -67 l3 -54 60 0 60 0 3 53 c2 31 -2 60 -9 68 -15 19 -108 19 -115 0z"/>
<path d="M10532 5048 c3 -21 8 -23 63 -23 55 0 60 2 63 23 3 21 0 22 -63 22 -63 0 -66 -1 -63 -22z"/>
<path d="M11172 5048 c3 -21 8 -23 63 -23 55 0 60 2 63 23 3 21 0 22 -63 22 -63 0 -66 -1 -63 -22z"/>
<path d="M3559 4381 c-56 -11 -85 -25 -122 -59 -47 -44 -57 -102 -57 -327 0 -225 10 -282 57 -328 51 -48 97 -57 301 -57 202 0 242 7 296 52 59 48 68 99 64 351 -3 192 -5 215 -23 247 -28 47 -88 86 -160 105 -70 19 -289 28 -356 16z"/>
<path d="M2257 4376 c-70 -15 -104 -39 -137 -97 -24 -42 -25 -52 -28 -250 -5 -252 4 -307 57 -360 20 -20 54 -42 76 -48 55 -15 396 -14 448 1 22 7 54 26 72 43 52 49 60 92 60 340 0 215 -1 221 -25 270 -31 62 -72 90 -153 104 -83 14 -297 13 -370 -3z"/>
<path d="M6371 4379 c-78 -15 -113 -40 -146 -104 l-30 -59 0 -220 0 -221 28 -57 c23 -48 36 -61 79 -82 50 -25 58 -26 244 -26 210 0 255 9 306 57 52 50 60 98 56 350 -3 227 -3 228 -30 274 -30 52 -67 74 -149 89 -62 12 -296 11 -358 -1z"/>
<path d="M9983 3840 c4 -45 15 -100 25 -123 42 -93 88 -108 333 -107 112 0 200 5 220 12 90 30 128 91 136 219 l6 79 -363 0 -363 0 6 -80z"/>
<path d="M5252 2629 c3 -37 8 -46 36 -62 l33 -20 -3 44 c-3 37 -8 46 -36 62 l-33 20 3 -44z"/>
<path d="M5035 2506 c-27 -13 -70 -38 -93 -55 -41 -30 -43 -34 -28 -50 12 -13 15 -29 10 -64 -8 -55 0 -67 61 -96 l43 -20 59 30 c126 67 123 64 123 128 0 63 -6 72 -72 106 -21 11 -38 25 -38 32 0 18 -7 16 -65 -11z"/>
<path d="M5357 2516 c-3 -8 -30 -27 -59 -42 l-53 -29 -3 -61 -3 -62 92 -53 92 -52 53 27 54 28 -1 59 c-1 33 4 66 10 73 15 18 -36 61 -114 100 -63 30 -61 30 -68 12z"/>
<path d="M4819 2393 c0 -10 -2 -26 -4 -36 -2 -12 8 -25 28 -38 44 -26 47 -25 47 19 0 31 -5 41 -29 55 -36 21 -41 21 -42 0z"/>
<path d="M5675 2380 c-8 -36 -2 -46 35 -65 27 -14 28 -14 33 18 4 25 0 37 -19 55 -33 29 -41 28 -49 -8z"/>
<path d="M5252 2180 c3 -91 3 -93 33 -109 17 -9 46 -27 65 -39 19 -12 38 -22 43 -22 4 0 7 40 7 89 l0 89 -67 39 c-38 21 -72 40 -76 41 -4 2 -6 -38 -5 -88z"/>
<path d="M4850 2210 c-25 -17 -53 -29 -62 -26 -10 2 -18 3 -18 3 -1 -1 -4 -30 -7 -64 -7 -81 4 -156 22 -149 7 2 34 -9 59 -25 26 -16 52 -29 57 -29 6 0 33 12 60 28 l49 27 0 108 c0 93 -2 108 -17 114 -10 3 -30 15 -45 25 -35 24 -45 23 -98 -12z"/>
<path d="M5488 2213 l-48 -26 0 -107 0 -106 53 -27 c30 -15 58 -27 62 -27 5 0 26 12 47 26 21 15 48 27 60 28 19 1 24 9 30 54 4 28 4 76 0 105 -6 42 -11 51 -26 49 -9 -2 -39 11 -65 27 -26 17 -52 31 -57 31 -5 0 -30 -12 -56 -27z"/>
<path d="M4975 1917 c-49 -32 -50 -33 -51 -85 -1 -29 -5 -63 -8 -76 -5 -20 2 -29 47 -60 28 -19 71 -42 94 -50 37 -13 42 -13 45 0 2 9 26 28 53 43 48 26 50 29 53 76 4 62 -3 91 -25 99 -10 3 -31 15 -48 26 -31 20 -102 60 -107 60 -2 0 -26 -15 -53 -33z"/>
<path d="M5340 1905 c-41 -24 -81 -48 -87 -55 -8 -6 -13 -35 -13 -70 l0 -60 60 -30 c33 -17 60 -35 60 -40 0 -17 24 -11 87 20 73 37 101 64 84 83 -6 8 -9 36 -7 69 3 30 1 59 -2 65 -7 9 -95 63 -103 63 -2 -1 -38 -21 -79 -45z"/>
<path d="M4818 1885 c-5 -40 -3 -44 34 -68 38 -24 40 -22 36 23 -2 33 -9 45 -34 61 l-32 20 -4 -36z"/>
<path d="M5676 1904 c-14 -37 -6 -62 28 -82 l34 -20 7 36 c5 29 3 39 -12 50 -38 29 -51 32 -57 16z"/>
<path d="M5250 1630 c0 -34 4 -42 30 -55 40 -20 40 -20 40 23 0 31 -5 41 -29 55 -40 23 -41 23 -41 -23z"/>
</g>


</svg>